<svg width="600" height="500" viewBox="0 0 600 500" fill="none" xmlns="http://www.w3.org/2000/svg">
<rect width="600" height="500" fill="white"/>
<path d="M261.93 222.615C258.785 222.615 255.924 222.264 253.346 221.561C250.768 220.857 248.229 219.637 245.729 217.898V207.586H252.35L253.258 213.65C254.117 214.393 255.318 214.998 256.861 215.467C258.424 215.916 260.113 216.141 261.93 216.141C264.254 216.141 266.031 215.672 267.262 214.734C268.492 213.777 269.107 212.488 269.107 210.867C269.107 209.344 268.521 208.064 267.35 207.029C266.197 205.975 264.166 204.998 261.256 204.1C256.197 202.635 252.428 200.896 249.947 198.885C247.467 196.873 246.227 194.119 246.227 190.623C246.227 188.318 246.861 186.287 248.131 184.529C249.42 182.752 251.197 181.355 253.463 180.34C255.729 179.324 258.346 178.797 261.314 178.758C264.596 178.719 267.496 179.109 270.016 179.93C272.555 180.75 274.742 181.893 276.578 183.357V192.967H270.162L269.049 187.107C268.307 186.639 267.301 186.229 266.031 185.877C264.781 185.525 263.355 185.35 261.754 185.35C259.703 185.35 258.023 185.809 256.715 186.727C255.406 187.645 254.752 188.934 254.752 190.594C254.752 192.02 255.357 193.211 256.568 194.168C257.799 195.105 260.055 196.102 263.336 197.156C268.043 198.465 271.607 200.193 274.029 202.342C276.471 204.49 277.691 207.312 277.691 210.809C277.691 213.25 277.037 215.35 275.729 217.107C274.42 218.865 272.574 220.223 270.191 221.18C267.828 222.137 265.074 222.615 261.93 222.615ZM280.826 222V216.873L284.957 215.994V182.332L280.387 181.453V176.297H293.482V194.344C294.479 192.879 295.709 191.746 297.174 190.945C298.658 190.125 300.338 189.715 302.213 189.715C305.396 189.715 307.916 190.779 309.771 192.908C311.646 195.018 312.584 198.289 312.584 202.723V215.994L316.686 216.873V222H300.338V216.873L304.029 215.994V202.664C304.029 200.379 303.6 198.758 302.74 197.801C301.881 196.844 300.621 196.365 298.961 196.365C296.559 196.365 294.732 197.303 293.482 199.178V215.994L297.174 216.873V222H280.826ZM334.264 222.615C331.119 222.615 328.424 221.932 326.178 220.564C323.951 219.197 322.242 217.303 321.051 214.881C319.859 212.439 319.264 209.637 319.264 206.473V205.857C319.264 202.713 319.859 199.93 321.051 197.508C322.242 195.066 323.951 193.162 326.178 191.795C328.424 190.408 331.1 189.715 334.205 189.715C337.33 189.715 340.006 190.398 342.232 191.766C344.479 193.133 346.197 195.037 347.389 197.479C348.58 199.9 349.176 202.693 349.176 205.857V206.473C349.176 209.637 348.58 212.439 347.389 214.881C346.197 217.303 344.488 219.197 342.262 220.564C340.035 221.932 337.369 222.615 334.264 222.615ZM334.264 216.053C336.471 216.053 338.082 215.174 339.098 213.416C340.133 211.658 340.65 209.344 340.65 206.473V205.857C340.65 203.045 340.133 200.75 339.098 198.973C338.062 197.195 336.432 196.307 334.205 196.307C331.979 196.307 330.357 197.195 329.342 198.973C328.326 200.75 327.818 203.045 327.818 205.857V206.473C327.818 209.363 328.326 211.688 329.342 213.445C330.357 215.184 331.998 216.053 334.264 216.053ZM352.809 234.188V229.031L356.939 228.152V196.336L352.369 195.457V190.301H364.791L365.201 193.992C366.139 192.625 367.271 191.57 368.6 190.828C369.928 190.086 371.51 189.715 373.346 189.715C375.904 189.715 378.092 190.418 379.908 191.824C381.725 193.211 383.111 195.154 384.068 197.654C385.045 200.154 385.533 203.074 385.533 206.414V207.029C385.533 210.154 385.045 212.889 384.068 215.232C383.092 217.557 381.686 219.373 379.85 220.682C378.033 221.971 375.846 222.615 373.287 222.615C369.947 222.615 367.34 221.404 365.465 218.982V228.152L369.596 229.031V234.188H352.809ZM370.738 216.053C372.926 216.053 374.508 215.242 375.484 213.621C376.48 212 376.979 209.803 376.979 207.029V206.414C376.979 203.426 376.471 201.004 375.455 199.148C374.439 197.293 372.848 196.365 370.68 196.365C368.297 196.365 366.559 197.381 365.465 199.412V213.299C366.539 215.135 368.297 216.053 370.738 216.053ZM388.551 234.188V229.031L392.682 228.152V196.336L388.111 195.457V190.301H400.533L400.943 193.992C401.881 192.625 403.014 191.57 404.342 190.828C405.67 190.086 407.252 189.715 409.088 189.715C411.646 189.715 413.834 190.418 415.65 191.824C417.467 193.211 418.854 195.154 419.811 197.654C420.787 200.154 421.275 203.074 421.275 206.414V207.029C421.275 210.154 420.787 212.889 419.811 215.232C418.834 217.557 417.428 219.373 415.592 220.682C413.775 221.971 411.588 222.615 409.029 222.615C405.689 222.615 403.082 221.404 401.207 218.982V228.152L405.338 229.031V234.188H388.551ZM406.48 216.053C408.668 216.053 410.25 215.242 411.227 213.621C412.223 212 412.721 209.803 412.721 207.029V206.414C412.721 203.426 412.213 201.004 411.197 199.148C410.182 197.293 408.59 196.365 406.422 196.365C404.039 196.365 402.301 197.381 401.207 199.412V213.299C402.281 215.135 404.039 216.053 406.48 216.053ZM424.234 222V216.873L428.365 215.994V196.336L423.795 195.457V190.301H436.92V215.994L441.021 216.873V222H424.234ZM428.072 183.592V176.297H436.92V183.592H428.072ZM443.57 222V216.873L447.672 215.994V196.336L443.131 195.457V190.301H455.641L456.021 194.842C457.076 193.221 458.375 191.961 459.918 191.062C461.48 190.164 463.258 189.715 465.25 189.715C468.375 189.715 470.826 190.721 472.604 192.732C474.4 194.744 475.299 197.898 475.299 202.195V215.994L479.4 216.873V222H463.053V216.873L466.715 215.994V202.225C466.715 200.096 466.285 198.592 465.426 197.713C464.586 196.814 463.346 196.365 461.705 196.365C459.322 196.365 457.496 197.361 456.227 199.354V215.994L459.684 216.873V222H443.57ZM495.836 234.803C494.234 234.803 492.438 234.588 490.445 234.158C488.453 233.748 486.695 233.172 485.172 232.43L486.754 226.336C488.121 226.922 489.566 227.381 491.09 227.713C492.633 228.064 494.068 228.24 495.396 228.24C497.682 228.24 499.352 227.605 500.406 226.336C501.48 225.066 502.018 223.299 502.018 221.033V218.953C500.084 221.395 497.525 222.615 494.342 222.615C491.744 222.615 489.527 221.971 487.691 220.682C485.855 219.373 484.439 217.547 483.443 215.203C482.467 212.859 481.979 210.135 481.979 207.029V206.414C481.979 203.074 482.467 200.154 483.443 197.654C484.42 195.154 485.816 193.211 487.633 191.824C489.449 190.418 491.627 189.715 494.166 189.715C496.061 189.715 497.691 190.115 499.059 190.916C500.426 191.697 501.588 192.82 502.545 194.285L503.16 190.301H514.322V195.457L510.602 196.248V221.062C510.602 225.242 509.283 228.572 506.646 231.053C504.029 233.553 500.426 234.803 495.836 234.803ZM496.744 215.965C499.146 215.965 500.904 215.027 502.018 213.152V199.383C500.865 197.371 499.117 196.365 496.773 196.365C494.586 196.365 492.994 197.293 491.998 199.148C491.021 201.004 490.533 203.426 490.533 206.414V207.029C490.533 209.803 491.012 211.99 491.969 213.592C492.926 215.174 494.518 215.965 496.744 215.965ZM256.51 301V295.873L261.051 294.994V264.379L256.51 263.5V258.344H276.812C280.074 258.344 282.887 258.92 285.25 260.072C287.613 261.205 289.43 262.797 290.699 264.848C291.969 266.879 292.604 269.252 292.604 271.967C292.604 274.682 291.969 277.064 290.699 279.115C289.43 281.146 287.613 282.729 285.25 283.861C282.887 284.975 280.074 285.531 276.812 285.531H269.605V294.994L274.176 295.873V301H256.51ZM269.605 278.939H276.812C279.195 278.939 280.992 278.295 282.203 277.006C283.434 275.697 284.049 274.037 284.049 272.025C284.049 269.975 283.434 268.285 282.203 266.957C280.992 265.609 279.195 264.936 276.812 264.936H269.605V278.939ZM305.816 301.615C302.672 301.615 300.172 300.775 298.316 299.096C296.461 297.396 295.533 295.092 295.533 292.182C295.533 289.213 296.734 286.791 299.137 284.916C301.559 283.041 305.113 282.104 309.801 282.104H313.99V279.76C313.99 278.236 313.541 277.006 312.643 276.068C311.764 275.111 310.436 274.633 308.658 274.633C307.74 274.633 306.91 274.75 306.168 274.984C305.445 275.199 304.791 275.512 304.205 275.922L303.531 280.111H297.379L297.262 271.879C298.922 270.941 300.719 270.18 302.652 269.594C304.586 269.008 306.744 268.715 309.127 268.715C313.268 268.715 316.539 269.682 318.941 271.615C321.344 273.549 322.545 276.293 322.545 279.848V292.914C322.545 293.344 322.545 293.764 322.545 294.174C322.564 294.584 322.604 294.994 322.662 295.404L325.973 295.873V301H315.367C315.152 300.453 314.938 299.867 314.723 299.242C314.508 298.617 314.352 297.992 314.254 297.367C313.238 298.656 312.037 299.691 310.65 300.473C309.283 301.234 307.672 301.615 305.816 301.615ZM308.102 295.287C309.293 295.287 310.416 295.023 311.471 294.496C312.545 293.949 313.385 293.236 313.99 292.357V287.348H309.771C307.896 287.348 306.471 287.777 305.494 288.637C304.537 289.496 304.059 290.531 304.059 291.742C304.059 292.875 304.41 293.754 305.113 294.379C305.836 294.984 306.832 295.287 308.102 295.287ZM329.664 301V295.873L333.766 294.994V275.336L329.225 274.457V269.301H341.734L342.057 273.227L342.115 273.93C343.678 270.453 346.021 268.715 349.146 268.715C349.654 268.715 350.201 268.754 350.787 268.832C351.393 268.91 351.939 269.027 352.428 269.184L351.52 277.064L347.271 276.83C346.061 276.771 345.074 276.977 344.312 277.445C343.57 277.914 342.906 278.588 342.32 279.467V294.994L346.422 295.873V301H329.664ZM364.996 301.615C361.852 301.615 359.352 300.775 357.496 299.096C355.641 297.396 354.713 295.092 354.713 292.182C354.713 289.213 355.914 286.791 358.316 284.916C360.738 283.041 364.293 282.104 368.98 282.104H373.17V279.76C373.17 278.236 372.721 277.006 371.822 276.068C370.943 275.111 369.615 274.633 367.838 274.633C366.92 274.633 366.09 274.75 365.348 274.984C364.625 275.199 363.971 275.512 363.385 275.922L362.711 280.111H356.559L356.441 271.879C358.102 270.941 359.898 270.18 361.832 269.594C363.766 269.008 365.924 268.715 368.307 268.715C372.447 268.715 375.719 269.682 378.121 271.615C380.523 273.549 381.725 276.293 381.725 279.848V292.914C381.725 293.344 381.725 293.764 381.725 294.174C381.744 294.584 381.783 294.994 381.842 295.404L385.152 295.873V301H374.547C374.332 300.453 374.117 299.867 373.902 299.242C373.688 298.617 373.531 297.992 373.434 297.367C372.418 298.656 371.217 299.691 369.83 300.473C368.463 301.234 366.852 301.615 364.996 301.615ZM367.281 295.287C368.473 295.287 369.596 295.023 370.65 294.496C371.725 293.949 372.564 293.236 373.17 292.357V287.348H368.951C367.076 287.348 365.65 287.777 364.674 288.637C363.717 289.496 363.238 290.531 363.238 291.742C363.238 292.875 363.59 293.754 364.293 294.379C365.016 294.984 366.012 295.287 367.281 295.287ZM400.387 301.615C397.867 301.615 395.699 300.971 393.883 299.682C392.086 298.373 390.709 296.557 389.752 294.232C388.795 291.889 388.316 289.154 388.316 286.029V285.414C388.316 282.074 388.795 279.154 389.752 276.654C390.729 274.154 392.115 272.211 393.912 270.824C395.709 269.418 397.857 268.715 400.357 268.715C402.115 268.715 403.639 269.066 404.928 269.77C406.236 270.453 407.369 271.43 408.326 272.699V261.332L403.756 260.453V255.297H416.881V294.994L420.982 295.873V301H409.469L408.824 297.133C407.828 298.598 406.637 299.711 405.25 300.473C403.863 301.234 402.242 301.615 400.387 301.615ZM402.936 294.965C405.299 294.965 407.096 293.979 408.326 292.006V278.559C407.096 276.43 405.318 275.365 402.994 275.365C400.846 275.365 399.283 276.293 398.307 278.148C397.35 280.004 396.871 282.426 396.871 285.414V286.029C396.871 288.803 397.34 290.99 398.277 292.592C399.215 294.174 400.768 294.965 402.936 294.965ZM423.443 301V295.873L427.574 294.994V275.336L423.004 274.457V269.301H436.129V294.994L440.23 295.873V301H423.443ZM427.281 262.592V255.297H436.129V262.592H427.281ZM456.695 301.615C454.332 301.615 452.125 301.391 450.074 300.941C448.043 300.492 446.09 299.848 444.215 299.008L444.127 290.043H450.074L451.217 294.613C451.881 294.945 452.604 295.209 453.385 295.404C454.186 295.6 455.094 295.697 456.109 295.697C458.023 295.697 459.371 295.385 460.152 294.76C460.934 294.135 461.324 293.354 461.324 292.416C461.324 291.537 460.904 290.766 460.064 290.102C459.225 289.418 457.574 288.822 455.113 288.314C451.344 287.533 448.57 286.322 446.793 284.682C445.035 283.041 444.156 280.941 444.156 278.383C444.156 276.645 444.596 275.043 445.475 273.578C446.373 272.113 447.73 270.951 449.547 270.092C451.383 269.213 453.727 268.773 456.578 268.773C458.961 268.773 461.139 269.008 463.111 269.477C465.104 269.926 466.773 270.521 468.121 271.264L468.209 279.936H462.291L461.383 275.775C460.25 274.994 458.824 274.604 457.105 274.604C455.621 274.604 454.469 274.916 453.648 275.541C452.848 276.146 452.447 276.918 452.447 277.855C452.447 278.676 452.799 279.418 453.502 280.082C454.225 280.727 455.797 281.322 458.219 281.869C462.145 282.768 465.006 283.969 466.803 285.473C468.6 286.957 469.498 289.047 469.498 291.742C469.498 294.691 468.424 297.074 466.275 298.891C464.146 300.707 460.953 301.615 456.695 301.615ZM488.57 301.615C485.523 301.615 482.867 300.951 480.602 299.623C478.355 298.275 476.607 296.43 475.357 294.086C474.127 291.742 473.512 289.066 473.512 286.059V284.887C473.512 281.742 474.098 278.959 475.27 276.537C476.441 274.096 478.092 272.182 480.221 270.795C482.369 269.389 484.898 268.695 487.809 268.715C492.086 268.715 495.357 269.975 497.623 272.494C499.889 274.994 501.021 278.51 501.021 283.041V287.699H482.389L482.33 287.875C482.486 289.965 483.18 291.684 484.41 293.031C485.641 294.379 487.389 295.053 489.654 295.053C491.217 295.053 492.672 294.857 494.02 294.467C495.387 294.057 496.715 293.461 498.004 292.68L500.318 297.953C499.01 299.008 497.359 299.887 495.367 300.59C493.395 301.273 491.129 301.615 488.57 301.615ZM482.447 282.045H493.023V281.283C493.023 279.369 492.623 277.855 491.822 276.742C491.041 275.609 489.752 275.043 487.955 275.043C486.236 275.043 484.928 275.697 484.029 277.006C483.131 278.295 482.574 279.926 482.359 281.898L482.447 282.045Z" fill="black"/>
<rect x="59" y="159" width="168" height="148" rx="22" fill="#F59E0B"/>
<path d="M98 175C98 161.209 103.162 147.982 112.352 138.23C121.541 128.479 134.004 123 147 123C159.996 123 172.459 128.479 181.648 138.23C190.838 147.982 196 161.209 196 175L186.667 175C186.667 163.836 182.487 153.129 175.048 145.234C167.61 137.34 157.52 132.905 147 132.905C136.48 132.905 126.39 137.34 118.952 145.234C111.513 153.129 107.333 163.836 107.333 175H98Z" fill="black"/>
<path d="M145.999 195.2L165.999 215.683L76.5869 306.233L72.0615 304.495L68.6674 302.178L65.839 299.86L63.5763 296.384L61.8793 294.067L60.7479 291.17L59.6166 287.694L59.1365 284.16L145.999 195.2Z" fill="black"/>
<path d="M126.269 215.483L146.269 195L226.755 277.429V281.739L226.194 285.956L225.36 290.012L223.931 294.067L219.703 299.86L216.875 302.178L214.047 303.916L126.269 215.483Z" fill="black"/>
</svg>
